<svg width="30" height="30" viewBox="0 0 30 30" fill="none" xmlns="http://www.w3.org/2000/svg" class="@@class">
  <title>@@title</title>
  <path fill-rule="evenodd" clip-rule="evenodd" d="M8.91514 20.3778L10.7734 18.5196C9.97833 17.5658 9.5 16.3388 9.5 15C9.5 11.9624 11.9624 9.5 15 9.5C16.3388 9.5 17.5658 9.97833 18.5196 10.7734L20.1596 9.1334C18.7075 8.44696 16.9902 8 15 8C8.56923 8 4.98718 12.6667 4 15C4.61404 16.4514 6.23206 18.8055 8.91514 20.3778ZM9.84053 20.8667C11.2925 21.5531 13.0099 22 15 22C21.4308 22 25.0128 17.3333 26 15C25.386 13.5486 23.768 11.1945 21.085 9.62223L19.2267 11.4805C20.0217 12.4343 20.5 13.6613 20.5 15C20.5 18.0376 18.0376 20.5 15 20.5C13.6613 20.5 12.4343 20.0217 11.4805 19.2267L9.84053 20.8667ZM15 19.5C13.9375 19.5 12.961 19.1318 12.1912 18.516L18.516 12.1912C19.1318 12.961 19.5 13.9375 19.5 15C19.5 17.4853 17.4853 19.5 15 19.5ZM11.4841 17.8089L17.8089 11.4841C17.039 10.8682 16.0625 10.5 15 10.5C12.5147 10.5 10.5 12.5147 10.5 15C10.5 16.0625 10.8682 17.039 11.4841 17.8089Z" fill="#919191"/>
</svg>
