<svg width="30" height="30" viewBox="0 0 30 30" fill="none" xmlns="http://www.w3.org/2000/svg" class="@@class">
  <title>@@title</title>
  <path fill-rule="evenodd" clip-rule="evenodd" d="M4 15C4.98718 17.3333 8.56923 22 15 22C21.4308 22 25.0128 17.3333 26 15C25.0128 12.6667 21.4308 8 15 8C8.56923 8 4.98718 12.6667 4 15ZM10.5 15C10.5 12.5147 12.5147 10.5 15 10.5C17.4853 10.5 19.5 12.5147 19.5 15C19.5 17.4853 17.4853 19.5 15 19.5C12.5147 19.5 10.5 17.4853 10.5 15ZM15 9.5C11.9624 9.5 9.5 11.9624 9.5 15C9.5 18.0376 11.9624 20.5 15 20.5C18.0376 20.5 20.5 18.0376 20.5 15C20.5 11.9624 18.0376 9.5 15 9.5Z" fill="#919191"/>
</svg>
